<?xml version="1.0" encoding="UTF-8"?>
<svg width="184px" height="202px" viewBox="0 0 184 202" version="1.1" xmlns="http://www.w3.org/2000/svg" xmlns:xlink="http://www.w3.org/1999/xlink">
    <title>Group 2</title>
    <defs>
        <polygon id="path-1" points="0 0 184 0 184 202 0 202"></polygon>
    </defs>
    <g id="Branding" stroke="none" stroke-width="1" fill="none" fill-rule="evenodd">
        <g id="A4-Copy-4" transform="translate(-329.000000, -197.000000)">
            <g id="Group-3" transform="translate(329.000000, 197.000000)">
                <mask id="mask-2" fill="white">
                    <use xlink:href="#path-1"></use>
                </mask>
                <g id="Clip-2"></g>
                <path d="M141.233801,60.5132093 C141.233801,67.5727854 135.565153,73.7964096 128.572089,74.413787 L57.9602532,80.6501933 L57.9602532,62.0202236 C57.9602532,54.9606475 63.6289017,48.7370233 70.6219653,48.1196459 L141.233801,41.8832396 L141.233801,60.5132093 Z M104.611065,110.65499 C104.611065,117.714566 98.9424167,123.93819 91.9493532,124.555568 L73.688632,126.168674 L73.688632,144.603077 C73.688632,151.662653 68.0199835,157.886277 61.0269199,158.503654 L42.7661987,160.11676 L42.7661987,110.465814 C42.7661987,103.406238 48.4348472,97.1826138 55.4279108,96.5652364 L104.611065,92.2205868 L104.611065,110.65499 Z M37.9851363,12.8959015 C17.0072117,14.7480336 0,33.4189062 0,54.5963565 L0,202 L146.014864,189.104099 C166.994055,187.250688 184,168.581094 184,147.402365 L184,0 L37.9851363,12.8959015 Z" id="Fill-1" fill="#6AE28F" mask="url(#mask-2)"></path>
            </g>
        </g>
    </g>
</svg>
